<!--?xml version="1.0" encoding="utf-8"?-->
<!-- Generator: Adobe Illustrator 15.1.0, SVG Export Plug-In . SVG Version: 6.00 Build 0)  -->

<svg version="1.1" id="_x32_" xmlns="http://www.w3.org/2000/svg" xmlns:xlink="http://www.w3.org/1999/xlink" x="0px" y="0px" width="512px" height="512px" viewBox="0 0 512 512" style="width: 256px; height: 256px; opacity: 1;" xml:space="preserve">
<style type="text/css">

	.st0{fill:#4B4B4B;}

</style>
<g>
	<path class="st0" d="M314.788,32.521c-64.516,60.219-51.609,123.297-58.797,123.297c-7.156,0,5.75-63.078-58.766-123.297
		C132.694-27.697,42.366,5.287,50.96,54.037c8.594,48.734,90.328,80.297,117.578,87.438c27.234,7.188,57.156,14.344,64.328,33
		c5.047,13.125,2.969,24.094,1.313,68.125H93.132c-8.313,0-15.063,6.734-15.063,15.063v44.234c0,8.313,6.75,15.063,15.063,15.063
		h19.547l30.734,178.688c0,9.031,7.328,16.359,16.375,16.359H352.21c9.031,0,16.359-7.328,16.359-16.359l30.75-178.688h19.547
		c8.313,0,15.047-6.75,15.047-15.063v-44.234c0-8.328-6.734-15.063-15.047-15.063H275.241c-1.656-43.578-3.703-53.594,1.344-66.703
		c7.172-18.641,39.641-27.234,66.875-34.422c27.25-7.141,108.969-38.703,117.578-87.438
		C469.647,5.287,379.319-27.697,314.788,32.521z" style="fill: rgb(255, 189, 76);"></path>
</g>
</svg>
