<svg xmlns="http://www.w3.org/2000/svg" width="149.711" height="200" viewBox="0 0 149.711 200"><path d="M74.842,0a5.83,5.83,0,0,0-5.833,5.833v46.1a2.1,2.1,0,0,0-.442-.355L64,48.874c.682-12.194-6.677-25.38-19.778-33.141-13.929-8.255-30.14-7.867-40.49-.115-1.824,12.8,5.623,27.2,19.555,35.448,13.1,7.766,28.216,7.877,38.575,1.424l4.556,2.7a2.1,2.1,0,0,0,2.592-.355v58.168H0v21.306H17.132L34.881,200h79.954l17.749-65.686h17.127V113.005H80.674V82.768a2.1,2.1,0,0,0,2.624.393l4.561-2.7c10.358,6.456,25.476,6.339,38.575-1.424,13.931-8.252,21.379-22.66,19.555-35.454-10.35-7.755-26.561-8.14-40.49.115-13.1,7.76-20.466,20.952-19.778,33.141L81.16,79.548a2.1,2.1,0,0,0-.486.4V5.831A5.83,5.83,0,0,0,74.842,0Z" transform="translate(0 0.002)"/></svg>